# xmcd CD database file
# Copyright (C) 1993-1998 Ti Kan
#
# Track frame offsets:
#	150
#	12867
#	24815
#	39130
#	50937
#	62270
#	101562
#	113797
#	124997
#	137937
#	150377
#	161597
#	173425
#	184667
#	194157
#	204137
#	215710
#	225892
#	236825
#	249217
#	259645
#
# Disc length: 3614 seconds
#
# Revision: 1
# Processed by: cddbd v1.4b41PL1 Copyright (c) Steve Scherf et al.
# Submitted via: CDValet v3.31 - Copyright (c) 1997 Greg Leichner
#
DISCID=0e0e1c15
DTITLE=Ike Turner and His Kings Of Rhythm - Rhythm Rockin' Blues
DYEAR=1900
DGENRE=
TTITLE0=Jackie Brenston and His Delta Cats/Rocket 88 
TTITLE1=Lover Boy/The Way You Used To Treat Me
TTITLE2=Dennis Binder/I Miss You So
TTITLE3=Dennis Binder/Nobody Wants Me
TTITLE4=Ike Turner and His Orchestra/Loosely aka The Wild One
TTITLE5=Ike Turner/All The Blues, All The Time (Medley)
TTITLE6=J. W. Walker/Sittning And Wondering
TTITLE7=Dennis Binder/Early Times
TTITLE8=Johnny Wright With Ike Turner's Orchestra/The World Is 
TTITLE8=Yours
TTITLE9=Johnny Wright With Ike Turner's Orchestra/Suffocate
TTITLE10=Little Johnny Burton/Talkin' About Me
TTITLE11=Little Johnny Burton/Walk My Way Home
TTITLE12=Lonnie "The Cat"/I Ain't Drunk
TTITLE13=Lonnie "The Cat"/The Road I Travel
TTITLE14=Billy Gale/Night Howler
TTITLE15=Billy Gale/My Heart In Your Hands
TTITLE16=Billy Gayles/A Woman Just Want Do
TTITLE17=Billy Gayles/I'm Tired Of Being Dogged Around
TTITLE18=Dennis Binder/You Got Me Way Down Here
TTITLE19=The Lover Boy/Love Is Scarce
TTITLE20=Lover Boy/Nobody Seems To Want Me
EXTD=
EXTT0=
EXTT1=
EXTT2=
EXTT3=
EXTT4=
EXTT5=Feeling Good, Love My Baby, Please Love Me, Boogie Chille
EXTT5=n', Dust My Broom, Rockin' and Rolling, Hoochie Coochie Man
EXTT5=, Woke Up This Morning\n
EXTT6=
EXTT7=
EXTT8=
EXTT9=
EXTT10=
EXTT11=
EXTT12=
EXTT13=
EXTT14=
EXTT15=
EXTT16=
EXTT17=
EXTT18=
EXTT19=
EXTT20=
PLAYORDER=
